<svg viewBox="0 0 300 480" xmlns="http://www.w3.org/2000/svg">
  <defs>
    <linearGradient id="body-dk" x1="0" y1="0" x2="1" y2="0">
      <stop offset="0%" stop-color="#E5E2DB"/>
      <stop offset="35%" stop-color="#F0EDE6"/>
      <stop offset="100%" stop-color="#E2DFD8"/>
    </linearGradient>
    <linearGradient id="cap-dk" x1="0" y1="0" x2="0" y2="1">
      <stop offset="0%" stop-color="#D6D2CB"/>
      <stop offset="100%" stop-color="#C5C1BA"/>
    </linearGradient>
    <linearGradient id="ring-dk" x1="0" y1="0" x2="0" y2="1">
      <stop offset="0%" stop-color="#D4A84B"/>
      <stop offset="100%" stop-color="#B0844A"/>
    </linearGradient>
    <clipPath id="cap-clip-dk">
      <rect x="52" y="15" width="196" height="90" rx="22"/>
    </clipPath>
  </defs>

  <!-- BOTTLE BODY -->
  <rect x="45" y="112" width="210" height="340" rx="14" fill="url(#body-dk)"/>

  <!-- NAVY BOTTOM -->
  <path d="M45,380 L255,380 L255,452 Q255,466 241,466 L59,466 Q45,466 45,452 Z" fill="#131929"/>

  <!-- CAP -->
  <rect x="52" y="15" width="196" height="90" rx="22" fill="url(#cap-dk)"/>
  <g clip-path="url(#cap-clip-dk)" opacity="0.45">
    <circle cx="72" cy="30" r="2.2" fill="#3A3730"/>
    <circle cx="145" cy="22" r="1.6" fill="#3A3730"/>
    <circle cx="205" cy="38" r="2.4" fill="#3A3730"/>
    <circle cx="88" cy="62" r="1.8" fill="#3A3730"/>
    <circle cx="168" cy="68" r="2.1" fill="#3A3730"/>
    <circle cx="220" cy="52" r="1.6" fill="#3A3730"/>
    <circle cx="118" cy="82" r="2.3" fill="#3A3730"/>
    <circle cx="65" cy="90" r="1.7" fill="#3A3730"/>
    <circle cx="238" cy="75" r="2" fill="#3A3730"/>
    <circle cx="185" cy="92" r="1.5" fill="#3A3730"/>
    <circle cx="102" cy="45" r="2" fill="#3A3730"/>
    <circle cx="158" cy="50" r="1.9" fill="#3A3730"/>
    <circle cx="228" cy="28" r="2.3" fill="#3A3730"/>
    <circle cx="62" cy="50" r="1.5" fill="#3A3730"/>
    <circle cx="132" cy="38" r="1.8" fill="#3A3730"/>
    <circle cx="192" cy="25" r="2" fill="#3A3730"/>
    <circle cx="78" cy="78" r="2.1" fill="#3A3730"/>
    <circle cx="245" cy="58" r="1.7" fill="#3A3730"/>
  </g>

  <!-- GOLD RING -->
  <rect x="45" y="103" width="210" height="11" rx="3" fill="url(#ring-dk)"/>

  <!-- LABEL CONTENT -->
  <text x="68" y="143" font-family="Georgia, 'Times New Roman', serif" font-size="15" font-weight="400" letter-spacing="5" fill="#131929">NUCLORA</text>
  <text x="68" y="158" font-family="Arial, Helvetica, sans-serif" font-size="6.5" font-weight="400" letter-spacing="3" fill="#B8906A">CELLULAR LONGEVITY</text>

  <text x="68" y="196" font-family="Georgia, 'Times New Roman', serif" font-size="27" font-weight="400" fill="#131929">VITAMIN</text>
  <text x="68" y="226" font-family="Georgia, 'Times New Roman', serif" font-size="27" font-weight="400" fill="#131929">D3 + K2</text>

  <text x="68" y="249" font-family="Arial, Helvetica, sans-serif" font-size="10" font-weight="300" fill="#2A2520">5000 IU + 200 mcg MK-7</text>
  <text x="68" y="263" font-family="Arial, Helvetica, sans-serif" font-size="7.5" font-weight="300" fill="#7A756E">Cholecalciferol + Menaquinone</text>

  <line x1="68" y1="275" x2="128" y2="275" stroke="#B8906A" stroke-width="1.5"/>

  <text x="68" y="293" font-family="Arial, Helvetica, sans-serif" font-size="6.8" letter-spacing="0.8" fill="#2A2520">IMMUNE SUPPORT*</text>
  <text x="68" y="307" font-family="Arial, Helvetica, sans-serif" font-size="6.8" letter-spacing="0.8" fill="#2A2520">BONE HEALTH* · CARDIOVASCULAR*</text>

  <text x="68" y="368" font-family="Arial, Helvetica, sans-serif" font-size="6.5" letter-spacing="1" fill="#2A2520">DIETARY SUPPLEMENT</text>
  <text x="68" y="380" font-family="Arial, Helvetica, sans-serif" font-size="6.5" letter-spacing="1" fill="#2A2520">60 VEGGIE CAPSULES</text>

  <text x="150" y="452" font-family="Georgia, serif" font-size="13" fill="#B8906A" opacity="0.5" text-anchor="middle" letter-spacing="1">N</text>

  <!-- MOLECULAR GRAPHIC — Hexagonal crystal / sun rays -->
  <g transform="translate(208, 258)" opacity="0.16">
    <!-- Central hexagon -->
    <polygon points="0,-22 19,-11 19,11 0,22 -19,11 -19,-11" fill="#C4973B" opacity="0.5"/>
    <polygon points="0,-13 11,-6.5 11,6.5 0,13 -11,6.5 -11,-6.5" fill="#C4973B" opacity="0.7"/>
    <!-- Sun rays -->
    <line x1="0" y1="-22" x2="0" y2="-55" stroke="#131929" stroke-width="1.3"/>
    <circle cx="0" cy="-60" r="5.5" fill="#C4973B" opacity="0.7"/>
    <line x1="19" y1="-11" x2="47" y2="-27" stroke="#131929" stroke-width="1.3"/>
    <circle cx="51" cy="-29" r="5" fill="#C4973B" opacity="0.7"/>
    <line x1="19" y1="11" x2="47" y2="27" stroke="#131929" stroke-width="1.3"/>
    <circle cx="51" cy="29" r="5" fill="#C4973B" opacity="0.7"/>
    <line x1="0" y1="22" x2="0" y2="55" stroke="#131929" stroke-width="1.3"/>
    <circle cx="0" cy="60" r="5.5" fill="#C4973B" opacity="0.7"/>
    <line x1="-19" y1="11" x2="-47" y2="27" stroke="#131929" stroke-width="1.3"/>
    <circle cx="-51" cy="29" r="5" fill="#C4973B" opacity="0.7"/>
    <line x1="-19" y1="-11" x2="-47" y2="-27" stroke="#131929" stroke-width="1.3"/>
    <circle cx="-51" cy="-29" r="5" fill="#C4973B" opacity="0.7"/>
    <!-- Outer ring -->
    <circle cx="0" cy="0" r="72" fill="none" stroke="#131929" stroke-width="0.7" stroke-dasharray="3,5" opacity="0.35"/>
    <!-- Outer hexagon dots -->
    <circle cx="0" cy="-72" r="3" fill="#C4973B" opacity="0.4"/>
    <circle cx="62" cy="-36" r="3" fill="#C4973B" opacity="0.4"/>
    <circle cx="62" cy="36" r="3" fill="#C4973B" opacity="0.4"/>
    <circle cx="0" cy="72" r="3" fill="#C4973B" opacity="0.4"/>
    <circle cx="-62" cy="36" r="3" fill="#C4973B" opacity="0.4"/>
    <circle cx="-62" cy="-36" r="3" fill="#C4973B" opacity="0.4"/>
  </g>
</svg>
